# xmcd
#
# Track frame offsets:
#	150
#	20475
#	37350
#	57450
#	77850
#	95325
#	117000
#	133275
#	156225
#	171300
#	189372
#	209397
#	226047
#	243072
#	262872
#	279672
#
# Disc length: 3943 seconds
#
# Revision: 5
# Processed by: cddbd v1.5.1PL0 Copyright (c) Steve Scherf et al.
# Submitted via: audiograbber 1.82.02
#
DISCID=dc0f6510
DTITLE=Party Time Country Hits - PTCH
DYEAR=1900
DGENRE=Country
TTITLE0=Shania Twain - Man I Feel Like A Woman
TTITLE1=Toby Keith - How Do You Like Me Now
TTITLE2=Faith Hill - Breathe
TTITLE3=Lonestar - Amazed
TTITLE4=Dixie Chicks - Ready To Run
TTITLE5=Garth Brooks - When You Come Back To Me Again
TTITLE6=LeAnn Rimes - Big Deal
TTITLE7=Tim McGraw - My Best Friend
TTITLE8=Martina McBride - I Love You
TTITLE9=Kenny Rogers - Buy Me A Rose
TTITLE10=Dixie Chicks - Cowboy Take Me Away
TTITLE11=Chad Brock - Yes
TTITLE12=LeAnn Rimes - I Need You
TTITLE13=Clay Walker - Chain Of Love
TTITLE14=Shedaisy - This Woman Needs
TTITLE15=Alan Jackson - Pop A Top
EXTD=
EXTT0=
EXTT1=
EXTT2=
EXTT3=
EXTT4=
EXTT5=
EXTT6=
EXTT7=
EXTT8=
EXTT9=
EXTT10=
EXTT11=
EXTT12=
EXTT13=
EXTT14=
EXTT15=
PLAYORDER=
